<svg width="16" height="16" viewBox="0 0 16 16" fill="none" xmlns="http://www.w3.org/2000/svg">
<path d="M5.27273 3.90909C4.51961 3.90909 3.90909 4.51961 3.90909 5.27273V10.7273C3.90909 11.4804 4.51961 12.0909 5.27273 12.0909H10.7273C11.4804 12.0909 12.0909 11.4804 12.0909 10.7273V9.81818C12.0909 9.56714 12.2944 9.36364 12.5455 9.36364C12.7965 9.36364 13 9.56714 13 9.81818V10.7273C13 11.9825 11.9825 13 10.7273 13H5.27273C4.01753 13 3 11.9825 3 10.7273V5.27273C3 4.01753 4.01753 3 5.27273 3H6.18182C6.43286 3 6.63636 3.20351 6.63636 3.45455C6.63636 3.70558 6.43286 3.90909 6.18182 3.90909H5.27273Z" fill="#9ECAFF"/>
<path fill-rule="evenodd" clip-rule="evenodd" d="M8.45415 3.45455C8.45415 3.20351 8.65766 3 8.9087 3H12.5448H12.5451C12.7961 3 12.9996 3.20351 12.9996 3.45455L12.9993 3.4703V7.09091C12.9993 7.34195 12.7958 7.54545 12.5448 7.54545C12.2938 7.54545 12.0902 7.34195 12.0902 7.09091V4.53791L7.40795 9.22021C7.23043 9.39772 6.94263 9.39772 6.76512 9.22021C6.58761 9.0427 6.58761 8.75489 6.76512 8.57738L11.4334 3.90909H8.9087C8.65766 3.90909 8.45415 3.70558 8.45415 3.45455Z" fill="#9ECAFF"/>
</svg>
